<svg xmlns="http://www.w3.org/2000/svg" xmlns:xlink="http://www.w3.org/1999/xlink" width="400" height="400" class="icon" p-id="12584" t="1572170574070" version="1.1" viewBox="0 0 1024 1024"><defs><style type="text/css"/></defs><path fill="#bfbfbf" d="M921.6 102.4H102.4a68.266667 68.266667 0 0 0-68.266667 68.266667v546.133333a68.266667 68.266667 0 0 0 68.266667 68.266667h375.466667v68.266666h-136.533334a34.133333 34.133333 0 0 0 0 68.266667h341.333334a34.133333 34.133333 0 0 0 0-68.266667h-136.533334v-68.266666h375.466667a68.266667 68.266667 0 0 0 68.266667-68.266667V170.666667a68.266667 68.266667 0 0 0-68.266667-68.266667z m0 68.266667v443.733333H102.4V170.666667zM102.4 716.8v-34.133333h819.2v34.133333z" p-id="12585"/><path fill="#bfbfbf" d="M204.8 546.133333a32.085333 32.085333 0 0 0 18.773333-5.802666L409.6 415.744l152.234667 91.477333a34.133333 34.133333 0 0 0 37.205333 0l238.933333-170.666666a34.133333 34.133333 0 1 0-39.594666-55.296L580.266667 437.248l-151.552-91.136a34.133333 34.133333 0 0 0-36.181334 0l-204.8 136.533333A34.133333 34.133333 0 0 0 204.8 546.133333z" p-id="12586"/></svg>